<svg xmlns="http://www.w3.org/2000/svg" viewBox="0 0 960 720" role="img" aria-label="Imagen provisional editorial de sala de fitness">
  <rect width="960" height="720" fill="#f6f4ee"/>
  <g opacity="0.08" stroke="#171816">
    <path d="M0 120h960M0 240h960M0 360h960M0 480h960M0 600h960"/>
    <path d="M120 0v720M240 0v720M360 0v720M480 0v720M600 0v720M720 0v720M840 0v720"/>
  </g>
  <rect x="132" y="278" width="696" height="34" rx="17" fill="#8ea07a"/>
  <rect x="208" y="236" width="40" height="118" rx="20" fill="#d9ddd3"/>
  <rect x="712" y="236" width="40" height="118" rx="20" fill="#d9ddd3"/>
  <rect x="160" y="216" width="34" height="158" rx="17" fill="#cfd4ca"/>
  <rect x="766" y="216" width="34" height="158" rx="17" fill="#cfd4ca"/>
  <circle cx="482" cy="208" r="74" fill="#f1ede4" stroke="#c9825c" stroke-width="12"/>
  <path d="M242 540c74-74 150-111 230-111 110 0 206 48 288 143" fill="none" stroke="#c9825c" stroke-opacity="0.55" stroke-width="18" stroke-linecap="round"/>
</svg>
