<svg xmlns="http://www.w3.org/2000/svg" viewBox="0 0 24 24" aria-hidden="true">
  <path fill="none" stroke="currentColor" stroke-linecap="round" stroke-linejoin="round" stroke-width="1.8" d="M5.9 18.3 4.8 21l3-.9a8.2 8.2 0 1 0-1.9-1.8Z"/>
  <path fill="none" stroke="currentColor" stroke-linecap="round" stroke-linejoin="round" stroke-width="1.8" d="M9.2 8.7c.2-.5.5-.6.9-.6h.6c.2 0 .4.1.5.4l.8 1.8c.1.3.1.5-.1.7l-.5.6c-.2.2-.2.4-.1.6.4.8 1.2 1.5 2 1.9.2.1.4.1.6-.1l.7-.6c.2-.2.5-.2.7-.1l1.7.8c.3.1.4.3.4.6v.5c0 .5-.4.9-.8 1.1-.7.3-1.9.2-3.4-.6-1.6-.8-3.1-2.2-4-3.7-.8-1.4-1-2.7-.6-3.3Z"/>
</svg>
